<svg width="250" height="94" viewBox="0 0 250 94" fill="none" xmlns="http://www.w3.org/2000/svg">
<g clip-path="url(#clip0_90_831)">
<path fill-rule="evenodd" clip-rule="evenodd" d="M64.6361 42.2139L64.8354 45.7144L61.1127 44.187L64.6371 42.2139H64.6361ZM73.735 23.6903C73.735 23.6903 79.0996 31.002 65.2079 26.6222C65.2079 26.6222 68.2405 23.3785 73.735 23.6903ZM66.4596 35.5911C70.8954 40.7382 70.173 49.3155 70.173 49.3155C69.0045 47.4968 65.8743 46.1247 65.8743 46.1247C67.2495 40.0175 66.4596 35.5911 66.4596 35.5911ZM76.7053 42.2636L71.6521 49.0577L71.3594 42.0401L76.7053 42.2626V42.2636ZM76.2798 45.0652L77.5086 54.6087L72.0391 50.2766L76.2788 45.0652H76.2798ZM83.6848 44.563C83.1348 52.3851 77.7016 57.7385 77.7016 57.7385C79.8344 50.2227 78.2517 42.504 78.2517 42.504L83.6838 44.563H83.6848ZM42.7324 42.2129L42.5342 45.7134L46.2568 44.186L42.7324 42.2129ZM33.6335 23.6893C33.6335 23.6893 28.269 31.001 42.1606 26.6212C42.1606 26.6212 39.128 23.3775 33.6335 23.6893ZM40.9099 35.5899C36.4742 40.7372 37.1965 49.3145 37.1965 49.3145C38.365 47.4958 41.4942 46.1235 41.4942 46.1235C40.119 40.0165 40.9099 35.5899 40.9099 35.5899ZM30.6632 42.2626L35.7176 49.0567L36.0101 42.0391L30.6632 42.2616V42.2626ZM31.0888 45.0642L29.8589 54.6077L35.3283 50.2756L31.0888 45.0642ZM23.6837 44.5618C24.2337 52.3841 29.6669 57.7374 29.6669 57.7374C27.5352 50.2217 29.1169 42.503 29.1169 42.503L23.6837 44.5618ZM53.6848 18.1951C53.6848 18.1951 69.3968 0.62734 80.674 13.1173C88.1621 -1.73912 94.9049 27.3068 97.317 28.6946C86.3624 26.0557 83.9111 4.47998 63.5515 18.6074C83.6619 8.85773 84.1021 26.8285 88.7204 31.3024C88.7204 31.3024 83.1326 28.5404 77.0821 29.7417C77.0821 29.7417 78.561 25.6932 75.9134 22.5708C75.9134 22.5708 79.5926 22.5366 81.3112 24.9724C77.8531 5.68755 60.9104 33.8293 57.3797 21.8501C57.3797 21.8501 56.3137 24.8005 57.173 26.8594C57.173 26.8594 54.4943 24.5944 53.6848 19.0018C52.8753 24.5944 50.1956 26.8594 50.1956 26.8594C51.0559 24.8005 49.989 21.8501 49.989 21.8501C46.4583 33.8293 29.5165 5.68755 26.0583 24.9724C27.7779 22.5366 31.4571 22.5708 31.4571 22.5708C28.8097 25.6932 30.2886 29.7417 30.2886 29.7417C24.2369 28.5414 18.6501 31.3024 18.6501 31.3024C23.2696 26.8285 23.7076 8.85773 43.819 18.6074C23.4584 4.47998 21.0071 26.0557 10.0536 28.6946C12.4656 27.3059 19.2064 -1.73912 26.6965 13.1173C37.9749 0.62734 53.6858 18.1951 53.6858 18.1951H53.6848ZM64.7202 8.10685C64.7202 8.10685 58.3281 7.28349 53.6848 12.0185C49.0416 7.28349 42.6493 8.10685 42.6493 8.10685C46.5859 4.10818 60.7837 4.10818 64.7202 8.10685ZM101.894 48.0396C107.072 40.9566 102.592 37.046 100.023 35.5321C103.611 35.4636 106.4 33.5695 107.369 30.1341C95.6772 29.139 99.5898 -5.77713 79.7899 6.48707C78.4157 1.053 69.621 3.85547 68.2655 4.32257C60.5532 -1.44086 46.8112 -1.44086 39.0999 4.32257C37.7455 3.85547 28.9508 1.053 27.5756 6.48707C7.77768 -5.77507 11.6903 29.141 0 30.1363C0.968313 33.5715 3.75801 35.4658 7.34481 35.5341C4.77723 37.0482 0.29682 40.9588 5.47365 48.0417C-24.76 108.388 132.129 108.388 101.894 48.0417V48.0396ZM97.8494 51.6666C97.8494 51.6666 101.495 67.1754 87.1917 77.0565C87.1917 77.0565 90.1484 68.2048 85.609 61.4792C85.609 61.4792 88.2907 73.8305 72.199 85.6348C72.199 85.6348 77.5637 80.556 77.0125 72.3215C72.9711 92.8243 34.3954 92.8243 30.3539 72.3215C29.8039 80.556 35.1676 85.6348 35.1676 85.6348C19.0746 73.8305 21.7575 61.4792 21.7575 61.4792C17.2189 68.2048 20.1759 77.0565 20.1759 77.0565C5.87211 67.1744 9.51814 51.6666 9.51814 51.6666C11.9249 56.127 15.9133 57.2247 15.9133 57.2247C-1.51111 35.619 17.3695 34.2861 39.432 32.6912C35.9252 30.941 33.0025 31.3541 33.0025 31.3541C37.4892 29.199 45.134 26.1323 49.1971 30.187C49.1971 30.187 44.7261 30.3236 43.764 34.5781C43.8968 34.6993 56.3821 43.1564 50.9854 43.1564L48.8878 42.0587L47.3404 43.259C47.3404 43.259 45.1391 41.5429 42.3203 40.3768C42.3203 40.3768 41.5638 35.3331 42.5954 32.3132C42.5954 32.3132 39.2939 33.617 37.4372 39.1071C37.4372 39.1071 29.7354 36.0871 18.9387 40.3416C18.9387 40.3416 15.1568 53.311 31.7987 65.2522C32.0655 41.515 75.302 41.515 75.5698 65.2522C92.2118 53.312 88.4289 40.3416 88.4289 40.3416C77.6321 36.0871 69.9302 39.1071 69.9302 39.1071C68.0736 33.617 64.7721 32.3132 64.7721 32.3132C65.8037 35.3331 65.0472 40.3768 65.0472 40.3768C62.2272 41.5429 60.0271 43.259 60.0271 43.259L58.4797 42.0587L56.3821 43.1564C50.9854 43.1564 63.4707 34.6993 63.6024 34.5781C62.6395 30.3236 58.1692 30.187 58.1692 30.187C62.2335 26.1323 69.8783 29.199 74.365 31.3541C74.365 31.3541 71.4423 30.942 67.9355 32.6912C89.998 34.2861 108.879 35.619 91.4553 57.2247C91.4553 57.2247 95.4437 56.127 97.8504 51.6666H97.8494Z" fill="#2D2D2D"/>
<path d="M38.7967 27.0406C40.0425 27.0406 41.0523 26.0401 41.0523 24.8059C41.0523 23.5715 40.0425 22.571 38.7967 22.571C37.5508 22.571 36.541 23.5715 36.541 24.8059C36.541 26.0401 37.5508 27.0406 38.7967 27.0406Z" fill="#434343"/>
<path d="M68.6844 27.0406C69.93 27.0406 70.94 26.0401 70.94 24.8059C70.94 23.5715 69.93 22.571 68.6844 22.571C67.4385 22.571 66.4287 23.5715 66.4287 24.8059C66.4287 26.0401 67.4385 27.0406 68.6844 27.0406Z" fill="#434343"/>
<path d="M68.684 25.2528C68.9332 25.2528 69.1352 25.0527 69.1352 24.8059C69.1352 24.559 68.9332 24.3589 68.684 24.3589C68.4349 24.3589 68.2329 24.559 68.2329 24.8059C68.2329 25.0527 68.4349 25.2528 68.684 25.2528Z" fill="#F5F5F5" fill-opacity="0.95"/>
<path d="M39.248 25.2528C39.4972 25.2528 39.6991 25.0527 39.6991 24.8059C39.6991 24.559 39.4972 24.3589 39.248 24.3589C38.999 24.3589 38.7969 24.559 38.7969 24.8059C38.7969 25.0527 38.999 25.2528 39.248 25.2528Z" fill="#F5F5F5" fill-opacity="0.95"/>
<path d="M123.233 71.6593C123.183 71.2123 122.975 70.8661 122.61 70.6204C122.244 70.3717 121.785 70.2474 121.231 70.2474C120.834 70.2474 120.491 70.3104 120.201 70.4362C119.912 70.559 119.687 70.7291 119.526 70.9462C119.369 71.1603 119.29 71.4043 119.29 71.6782C119.29 71.9079 119.343 72.1064 119.45 72.2731C119.561 72.44 119.704 72.5802 119.88 72.6935C120.06 72.8037 120.252 72.8965 120.456 72.9721C120.661 73.0446 120.858 73.1043 121.047 73.1516L121.991 73.3971C122.299 73.4726 122.616 73.575 122.94 73.704C123.264 73.8331 123.565 74.0032 123.842 74.2141C124.119 74.4251 124.343 74.6862 124.513 74.9979C124.686 75.3095 124.772 75.6827 124.772 76.1171C124.772 76.6649 124.631 77.1513 124.347 77.5763C124.067 78.0014 123.659 78.3366 123.124 78.5822C122.592 78.8277 121.949 78.9505 121.193 78.9505C120.469 78.9505 119.842 78.8356 119.313 78.6058C118.785 78.3759 118.371 78.0501 118.072 77.6282C117.772 77.2033 117.607 76.6995 117.576 76.1171H119.04C119.068 76.4666 119.181 76.7578 119.38 76.9907C119.581 77.2206 119.838 77.3922 120.149 77.5055C120.464 77.6157 120.809 77.6707 121.183 77.6707C121.596 77.6707 121.963 77.6063 122.284 77.4771C122.608 77.3449 122.863 77.1623 123.049 76.9294C123.235 76.6932 123.327 76.4178 123.327 76.1029C123.327 75.8165 123.246 75.582 123.082 75.3993C122.921 75.2168 122.703 75.0657 122.425 74.946C122.151 74.8263 121.841 74.7209 121.495 74.6297L120.352 74.318C119.578 74.1071 118.964 73.7969 118.511 73.3877C118.061 72.9784 117.835 72.4369 117.835 71.7632C117.835 71.206 117.987 70.7196 118.289 70.3041C118.591 69.8885 119 69.5659 119.517 69.336C120.033 69.1029 120.615 68.9866 121.264 68.9866C121.919 68.9866 122.496 69.1014 122.997 69.3313C123.501 69.561 123.897 69.8775 124.187 70.2805C124.476 70.6802 124.628 71.1398 124.64 71.6593H123.233Z" fill="url(#paint0_linear_90_831)"/>
<path d="M138.406 70.3748V69.1187H145.891V70.3748H142.874V78.7899H141.419V70.3748H138.406Z" fill="url(#paint1_linear_90_831)"/>
<path d="M159.586 78.7899H158.037L161.517 69.1187H163.203L166.684 78.7899H165.135L162.4 70.8753H162.325L159.586 78.7899ZM159.846 75.0026H164.87V76.2304H159.846V75.0026Z" fill="url(#paint2_linear_90_831)"/>
<path d="M180.447 78.7899V69.1187H181.907V73.737H182.025L186.081 69.1187H187.917L184.018 73.4725L187.932 78.7899H186.175L183.049 74.4691L181.907 75.7817V78.7899H180.447Z" fill="url(#paint3_linear_90_831)"/>
<path d="M203.103 69.1187V78.7899H201.646V69.1187H203.103Z" fill="url(#paint4_linear_90_831)"/>
<path d="M225.402 69.1187V78.7899H224.061L219.145 71.6971H219.056V78.7899H217.596V69.1187H218.946L223.868 76.2209H223.958V69.1187H225.402Z" fill="url(#paint5_linear_90_831)"/>
<path d="M246.443 72.1741C246.351 71.8875 246.228 71.631 246.074 71.4043C245.922 71.1746 245.743 70.9793 245.532 70.8187C245.321 70.6551 245.08 70.5306 244.809 70.4457C244.541 70.3607 244.247 70.3182 243.926 70.3182C243.381 70.3182 242.89 70.4583 242.452 70.7384C242.014 71.0187 241.669 71.4296 241.413 71.9709C241.162 72.5093 241.035 73.1689 241.035 73.9497C241.035 74.7336 241.163 75.3961 241.418 75.9377C241.674 76.4791 242.023 76.89 242.467 77.1702C242.91 77.4503 243.416 77.5905 243.983 77.5905C244.508 77.5905 244.967 77.4834 245.357 77.2693C245.749 77.0552 246.054 76.753 246.268 76.3627C246.486 75.9691 246.594 75.5064 246.594 74.9743L246.971 75.0452H244.204V73.841H248.005V74.9414C248.005 75.7535 247.832 76.4586 247.487 77.0569C247.142 77.6518 246.667 78.1116 246.06 78.4357C245.455 78.76 244.764 78.9221 243.983 78.9221C243.107 78.9221 242.339 78.7206 241.677 78.3177C241.02 77.9148 240.507 77.3433 240.138 76.6036C239.77 75.8606 239.586 74.9791 239.586 73.959C239.586 73.1877 239.692 72.4952 239.907 71.8812C240.121 71.2673 240.422 70.7464 240.809 70.3182C241.2 69.8868 241.657 69.5579 242.182 69.3313C242.713 69.1014 243.289 68.9866 243.916 68.9866C244.438 68.9866 244.925 69.0637 245.376 69.218C245.829 69.3722 246.232 69.591 246.584 69.8744C246.94 70.1576 247.234 70.4945 247.467 70.8848C247.701 71.2721 247.857 71.7018 247.94 72.1741H246.443Z" fill="url(#paint6_linear_90_831)"/>
<path d="M119.508 53.8563V17.5894H134.029C136.697 17.5894 138.923 17.9848 140.705 18.7759C142.488 19.5667 143.828 20.6648 144.725 22.0696C145.622 23.4627 146.071 25.0682 146.071 26.8864C146.071 28.303 145.788 29.5485 145.221 30.6228C144.654 31.6853 143.875 32.5589 142.883 33.2436C141.904 33.9166 140.782 34.3947 139.519 34.6781V35.0322C140.9 35.0912 142.193 35.4808 143.397 36.2009C144.613 36.9211 145.599 37.9304 146.354 39.2291C147.11 40.5159 147.488 42.0506 147.488 43.8334C147.488 45.7576 147.009 47.4753 146.053 48.9865C145.109 50.4858 143.71 51.6723 141.856 52.5458C140.003 53.4195 137.718 53.8563 135.003 53.8563H119.508ZM127.176 47.5875H133.427C135.564 47.5875 137.122 47.1803 138.102 46.3656C139.082 45.5392 139.572 44.4413 139.572 43.0719C139.572 42.0684 139.33 41.1829 138.846 40.4157C138.362 39.6482 137.671 39.0461 136.774 38.6093C135.889 38.1725 134.832 37.954 133.604 37.954H127.176V47.5875ZM127.176 32.7656H132.861C133.911 32.7656 134.844 32.5825 135.658 32.2165C136.485 31.8389 137.134 31.3076 137.606 30.6228C138.09 29.9381 138.332 29.1176 138.332 28.1613C138.332 26.8508 137.866 25.7943 136.933 24.9914C136.013 24.1888 134.702 23.7873 133.002 23.7873H127.176V32.7656Z" fill="url(#paint7_linear_90_831)" fill-opacity="0.9"/>
<path d="M157.232 53.8563H149.016L161.536 17.5894H171.416L183.92 53.8563H175.702L166.618 25.8769H166.335L157.232 53.8563ZM156.719 39.601H176.127V45.5865H156.719V39.601Z" fill="url(#paint8_linear_90_831)" fill-opacity="0.9"/>
<path d="M186.789 53.8563V17.5894H201.097C203.835 17.5894 206.174 18.0794 208.108 19.0591C210.057 20.0272 211.539 21.4025 212.553 23.1853C213.58 24.956 214.094 27.0398 214.094 29.4363C214.094 31.8447 213.575 33.9166 212.537 35.652C211.498 37.3756 209.992 38.6979 208.02 39.6188C206.061 40.5395 203.689 40.9999 200.901 40.9999H191.321V34.8374H199.663C201.125 34.8374 202.342 34.6367 203.31 34.2353C204.279 33.8339 204.998 33.2318 205.47 32.4291C205.954 31.6263 206.197 30.6288 206.197 29.4363C206.197 28.2321 205.954 27.2168 205.47 26.3906C204.998 25.5641 204.272 24.9384 203.293 24.5134C202.324 24.0766 201.102 23.8581 199.626 23.8581H194.456V53.8563H186.789ZM206.373 37.352L215.387 53.8563H206.923L198.103 37.352H206.373Z" fill="url(#paint9_linear_90_831)" fill-opacity="0.9"/>
<path d="M218.017 53.8563V17.5894H225.685V33.58H226.164L239.214 17.5894H248.404L234.947 33.8281L248.564 53.8563H239.392L229.457 38.9457L225.685 43.55V53.8563H218.017Z" fill="url(#paint10_linear_90_831)" fill-opacity="0.9"/>
<path d="M119.425 53.8564V53.9395H119.508H135.003C137.727 53.9395 140.024 53.5014 141.892 52.6212C143.757 51.7419 145.169 50.5456 146.124 49.031C147.089 47.5055 147.571 45.7721 147.571 43.8335C147.571 42.0389 147.191 40.4892 146.426 39.1874C145.664 37.8774 144.668 36.8574 143.439 36.1295C142.247 35.4164 140.967 35.024 139.602 34.953V34.7445C140.848 34.4573 141.958 33.9801 142.931 33.3122H142.931C143.933 32.6199 144.721 31.7362 145.294 30.6621L145.295 30.6616C145.869 29.5735 146.154 28.3144 146.154 26.8865C146.154 25.0541 145.702 23.4325 144.795 22.0248C143.888 20.6041 142.534 19.4964 140.739 18.7C138.943 17.903 136.705 17.5063 134.029 17.5063H119.508H119.425V17.5895V53.8564ZM136.737 38.6839L136.738 38.6842C137.622 39.1149 138.301 39.707 138.776 40.46C139.251 41.2128 139.489 42.0825 139.489 43.072C139.489 44.4188 139.009 45.4926 138.049 46.3021C137.091 47.0981 135.557 47.5045 133.427 47.5045H127.259V38.0373H133.604C134.822 38.0373 135.866 38.254 136.737 38.6839ZM137.538 30.575L137.538 30.5757C137.075 31.2469 136.438 31.7688 135.624 32.141C134.822 32.5012 133.902 32.6825 132.861 32.6825H127.259V23.8705H133.002C134.69 23.8705 135.978 24.269 136.879 25.0542L136.879 25.0546C137.792 25.8405 138.249 26.8734 138.249 28.1614C138.249 29.1029 138.011 29.9061 137.538 30.575ZM157.232 53.9395H157.292L157.311 53.8822L159.983 45.6697H172.957L175.623 53.882L175.642 53.9395H175.701H183.919H184.036L183.998 53.8293L171.496 17.5624L171.476 17.5063H171.416H161.535H161.476L161.457 17.5624L148.937 53.8293L148.899 53.9395H149.015H157.232ZM166.557 25.9601L170.959 39.518H161.984L166.395 25.9601H166.557ZM186.705 53.8564V53.9395H186.788H194.456H194.539V53.8564V41.0831H200.003L206.85 53.8956L206.873 53.9395H206.923H215.387H215.527L215.46 53.8165L207.809 39.8067C207.892 39.77 207.974 39.7324 208.055 39.6942C210.041 38.7668 211.559 37.4339 212.608 35.695C213.655 33.9443 214.177 31.8569 214.177 29.4364C214.177 27.0278 213.662 24.9294 212.626 23.1438C211.602 21.3461 210.108 19.9598 208.147 18.9849C206.195 17.9979 203.845 17.5063 201.097 17.5063H186.788H186.705V17.5895V53.8564ZM199.663 34.7544H194.539V23.9414H199.626C201.095 23.9414 202.304 24.1588 203.258 24.5893L203.26 24.5898C204.225 25.0085 204.937 25.6229 205.399 26.4319V26.4325C205.874 27.2434 206.114 28.2432 206.114 29.4364C206.114 30.6177 205.874 31.5994 205.399 32.3863V32.387C204.937 33.1724 204.232 33.7633 203.278 34.1586C202.324 34.5546 201.119 34.7544 199.663 34.7544ZM217.934 53.8564V53.9395H218.017H225.685H225.768V53.8564V43.5798L229.45 39.0855L239.322 53.9025L239.347 53.9395H239.392H248.564H248.722L248.634 53.8097L235.05 33.8331L248.469 17.6425L248.582 17.5063H248.404H239.214H239.175L239.151 17.5369L226.124 33.497H225.768V17.5895V17.5063H225.685H218.017H217.934V17.5895V53.8564Z" stroke="#B9B9B9" stroke-opacity="0.9"/>
</g>
<defs>
<linearGradient id="paint0_linear_90_831" x1="182.846" y1="94.5812" x2="182.846" y2="65.8245" gradientUnits="userSpaceOnUse">
<stop stop-color="#963F06"/>
<stop offset="1" stop-color="#E15F09"/>
</linearGradient>
<linearGradient id="paint1_linear_90_831" x1="182.846" y1="94.5811" x2="182.846" y2="65.8244" gradientUnits="userSpaceOnUse">
<stop stop-color="#963F06"/>
<stop offset="1" stop-color="#E15F09"/>
</linearGradient>
<linearGradient id="paint2_linear_90_831" x1="182.846" y1="94.5811" x2="182.846" y2="65.8244" gradientUnits="userSpaceOnUse">
<stop stop-color="#963F06"/>
<stop offset="1" stop-color="#E15F09"/>
</linearGradient>
<linearGradient id="paint3_linear_90_831" x1="182.846" y1="94.5811" x2="182.846" y2="65.8244" gradientUnits="userSpaceOnUse">
<stop stop-color="#963F06"/>
<stop offset="1" stop-color="#E15F09"/>
</linearGradient>
<linearGradient id="paint4_linear_90_831" x1="182.846" y1="94.5811" x2="182.846" y2="65.8244" gradientUnits="userSpaceOnUse">
<stop stop-color="#963F06"/>
<stop offset="1" stop-color="#E15F09"/>
</linearGradient>
<linearGradient id="paint5_linear_90_831" x1="182.846" y1="94.5811" x2="182.846" y2="65.8244" gradientUnits="userSpaceOnUse">
<stop stop-color="#963F06"/>
<stop offset="1" stop-color="#E15F09"/>
</linearGradient>
<linearGradient id="paint6_linear_90_831" x1="182.846" y1="94.5812" x2="182.846" y2="65.8245" gradientUnits="userSpaceOnUse">
<stop stop-color="#963F06"/>
<stop offset="1" stop-color="#E15F09"/>
</linearGradient>
<linearGradient id="paint7_linear_90_831" x1="182.846" y1="5.4853" x2="182.846" y2="65.8244" gradientUnits="userSpaceOnUse">
<stop stop-color="#3D3D3D"/>
<stop offset="1" stop-color="#0C0C0C"/>
</linearGradient>
<linearGradient id="paint8_linear_90_831" x1="182.846" y1="5.4853" x2="182.846" y2="65.8244" gradientUnits="userSpaceOnUse">
<stop stop-color="#3D3D3D"/>
<stop offset="1" stop-color="#0C0C0C"/>
</linearGradient>
<linearGradient id="paint9_linear_90_831" x1="182.846" y1="5.4853" x2="182.846" y2="65.8244" gradientUnits="userSpaceOnUse">
<stop stop-color="#3D3D3D"/>
<stop offset="1" stop-color="#0C0C0C"/>
</linearGradient>
<linearGradient id="paint10_linear_90_831" x1="182.846" y1="5.4853" x2="182.846" y2="65.8244" gradientUnits="userSpaceOnUse">
<stop stop-color="#3D3D3D"/>
<stop offset="1" stop-color="#0C0C0C"/>
</linearGradient>
<clipPath id="clip0_90_831">
<rect width="250" height="93.4176" fill="white"/>
</clipPath>
</defs>
</svg>
